<svg xmlns="http://www.w3.org/2000/svg" width="16" height="16" viewBox="0 0 24 24" fill="currentColor">
  <path d="M20.447 20.452h-3.554v-5.569c0-1.328-.475-2.236-1.986-2.236-1.081 0-1.722.731-2.004 1.438-.103.249-.129.597-.129.945v5.422h-3.554s.035-8.087 0-8.923h3.554v1.261c-.009.015-.022.029-.033.042h.033v-.042c.395-.609 1.101-1.473 2.681-1.473 1.957 0 3.422 1.278 3.422 4.028v5.107zM5.337 8.855c-1.144 0-1.915-.759-1.915-1.71 0-.956.77-1.71 1.952-1.71 1.181 0 1.914.754 1.948 1.71 0 .951-.767 1.71-1.985 1.71zm1.581 11.597H3.656V9.529h3.262v10.923zM22.225 0H1.771C.792 0 0 .774 0 1.729v20.542C0 23.227.792 24 1.771 24h20.451C23.2 24 24 23.227 24 22.271V1.729C24 .774 23.2 0 22.225 0z"/>
</svg>